<svg xmlns="http://www.w3.org/2000/svg" xmlns:xlink="http://www.w3.org/1999/xlink" width="800" zoomAndPan="magnify" viewBox="0 0 600 225" height="300" preserveAspectRatio="xMidYMid meet" version="1.0"><defs><g/></defs><rect x="-60" width="720" fill="#ffffff" y="-22.5" height="270" fill-opacity="1"/><rect x="-60" width="720" fill="#ffffff" y="-22.5" height="270" fill-opacity="1"/><g fill="#ebff03" fill-opacity="1"><g transform="translate(86.346167, 111.750005)"><g><path d="M 92.796875 -21.40625 C 92.992188 -17.863281 92.660156 -14.226562 91.796875 -10.5 C 91.265625 -8.5 90.347656 -6.929688 89.046875 -5.796875 C 87.742188 -4.660156 86.195312 -4.0625 84.40625 -4 C 82.800781 -3.9375 81.234375 -4.40625 79.703125 -5.40625 C 78.171875 -6.40625 77.203125 -7.96875 76.796875 -10.09375 C 75.460938 -16.5625 74.53125 -24.097656 74 -32.703125 C 73.800781 -35.035156 73.71875 -37.367188 73.75 -39.703125 C 73.78125 -42.035156 73.796875 -44.332031 73.796875 -46.59375 C 73.796875 -47.664062 73.8125 -48.75 73.84375 -49.84375 C 73.882812 -50.945312 73.90625 -52.03125 73.90625 -53.09375 C 73.90625 -53.695312 73.851562 -54.332031 73.75 -55 C 73.644531 -55.664062 73.425781 -56.363281 73.09375 -57.09375 L 72.09375 -59.203125 L 70.703125 -56.296875 C 70.566406 -55.960938 70.429688 -55.628906 70.296875 -55.296875 C 70.160156 -54.960938 70.03125 -54.628906 69.90625 -54.296875 C 69.4375 -52.960938 68.96875 -51.644531 68.5 -50.34375 C 68.03125 -49.050781 67.5625 -47.738281 67.09375 -46.40625 C 66.300781 -44.132812 65.519531 -41.863281 64.75 -39.59375 C 63.976562 -37.332031 63.160156 -35.101562 62.296875 -32.90625 L 62.203125 -32.5 C 61.734375 -31.226562 61.25 -29.941406 60.75 -28.640625 C 60.25 -27.347656 59.664062 -26.101562 59 -24.90625 C 57.0625 -21.695312 54.53125 -20.03125 51.40625 -19.90625 C 48.332031 -19.769531 45.726562 -21.164062 43.59375 -24.09375 C 42.394531 -25.695312 41.34375 -27.398438 40.4375 -29.203125 C 39.539062 -31.003906 38.695312 -32.835938 37.90625 -34.703125 C 36.96875 -36.703125 36.046875 -38.734375 35.140625 -40.796875 C 34.242188 -42.867188 33.363281 -44.9375 32.5 -47 C 32.101562 -48 31.671875 -49.015625 31.203125 -50.046875 C 30.734375 -51.078125 30.300781 -52.128906 29.90625 -53.203125 C 29.695312 -53.671875 29.410156 -54.171875 29.046875 -54.703125 C 28.679688 -55.234375 28.195312 -55.800781 27.59375 -56.40625 L 26.09375 -57.703125 L 25.5 -53.796875 C 25.4375 -53.128906 25.351562 -52.445312 25.25 -51.75 C 25.144531 -51.050781 25.0625 -50.367188 25 -49.703125 C 24.726562 -47.171875 24.457031 -44.65625 24.1875 -42.15625 C 23.925781 -39.65625 23.664062 -37.132812 23.40625 -34.59375 C 23.070312 -31.0625 22.71875 -27.546875 22.34375 -24.046875 C 21.976562 -20.546875 21.597656 -17.03125 21.203125 -13.5 C 21.128906 -12.300781 21.007812 -11.117188 20.84375 -9.953125 C 20.675781 -8.785156 20.425781 -7.664062 20.09375 -6.59375 C 19.5625 -4.53125 18.53125 -2.898438 17 -1.703125 C 15.46875 -0.503906 13.734375 0.0625 11.796875 0 C 9.796875 -0.0625 8.078125 -0.773438 6.640625 -2.140625 C 5.210938 -3.515625 4.363281 -5.203125 4.09375 -7.203125 C 3.5625 -11.335938 3.5625 -15.101562 4.09375 -18.5 C 6.5 -33.226562 9.203125 -48.226562 12.203125 -63.5 C 12.867188 -67.03125 14.101562 -70.460938 15.90625 -73.796875 C 17.570312 -76.734375 19.769531 -78.4375 22.5 -78.90625 C 22.894531 -78.96875 23.296875 -79 23.703125 -79 C 25.898438 -79 27.96875 -78.132812 29.90625 -76.40625 C 32.96875 -73.601562 36.195312 -69.601562 39.59375 -64.40625 C 40.664062 -62.800781 41.664062 -61.113281 42.59375 -59.34375 C 43.53125 -57.582031 44.5 -55.800781 45.5 -54 C 45.894531 -53.132812 46.3125 -52.285156 46.75 -51.453125 C 47.1875 -50.617188 47.632812 -49.769531 48.09375 -48.90625 L 49.203125 -46.90625 L 50.09375 -49 C 50.425781 -49.800781 50.742188 -50.597656 51.046875 -51.390625 C 51.347656 -52.191406 51.664062 -52.992188 52 -53.796875 C 52.664062 -55.597656 53.332031 -57.332031 54 -59 C 54.664062 -60.664062 55.363281 -62.332031 56.09375 -64 C 57.757812 -67.664062 59.757812 -71.429688 62.09375 -75.296875 C 63.226562 -77.234375 64.695312 -79.035156 66.5 -80.703125 C 69.632812 -83.566406 72.867188 -84.664062 76.203125 -84 C 79.535156 -83.332031 82.066406 -81.03125 83.796875 -77.09375 C 86.867188 -70.363281 88.90625 -62.03125 89.90625 -52.09375 L 90.5 -46 C 90.96875 -42 91.398438 -37.914062 91.796875 -33.75 C 92.203125 -29.582031 92.535156 -25.46875 92.796875 -21.40625 Z M 92.796875 -21.40625 "/></g></g></g><g fill="#ebff03" fill-opacity="1"><g transform="translate(183.042444, 111.750005)"><g><path d="M 76.5 -16.40625 C 76.5625 -15.9375 76.660156 -15.5 76.796875 -15.09375 C 76.734375 -12.632812 76.179688 -10.570312 75.140625 -8.90625 C 74.109375 -7.238281 72.660156 -6.132812 70.796875 -5.59375 C 68.929688 -5 67.128906 -5.066406 65.390625 -5.796875 C 63.660156 -6.535156 62.265625 -7.769531 61.203125 -9.5 C 60.066406 -11.4375 59.097656 -13.835938 58.296875 -16.703125 C 58.035156 -17.765625 57.570312 -18.726562 56.90625 -19.59375 C 56.238281 -20.46875 55.035156 -20.9375 53.296875 -21 C 51.367188 -21.0625 49.4375 -21.125 47.5 -21.1875 C 45.5625 -21.257812 43.628906 -21.332031 41.703125 -21.40625 C 39.171875 -21.53125 36.601562 -21.644531 34 -21.75 C 31.394531 -21.851562 28.796875 -21.9375 26.203125 -22 C 25.535156 -22 24.800781 -21.710938 24 -21.140625 C 23.195312 -20.578125 22.597656 -20 22.203125 -19.40625 C 21.671875 -18.46875 21.15625 -17.515625 20.65625 -16.546875 C 20.15625 -15.578125 19.671875 -14.628906 19.203125 -13.703125 C 18.734375 -12.765625 18.25 -11.796875 17.75 -10.796875 C 17.25 -9.796875 16.695312 -8.832031 16.09375 -7.90625 C 13.757812 -3.832031 10.925781 -2.53125 7.59375 -4 C 6.257812 -4.53125 5.175781 -5.59375 4.34375 -7.1875 C 3.507812 -8.789062 3.425781 -10.660156 4.09375 -12.796875 C 6.425781 -20.066406 9.425781 -28.300781 13.09375 -37.5 C 15.425781 -43.363281 18.363281 -49.960938 21.90625 -57.296875 C 22.90625 -59.367188 24.019531 -61.550781 25.25 -63.84375 C 26.476562 -66.144531 27.828125 -68.394531 29.296875 -70.59375 C 30.828125 -72.800781 33.0625 -74.738281 36 -76.40625 C 38.195312 -77.738281 40.296875 -78.40625 42.296875 -78.40625 C 45.828125 -78.40625 48.757812 -76.4375 51.09375 -72.5 C 55.695312 -64.632812 60.195312 -56.453125 64.59375 -47.953125 C 69 -39.453125 72.566406 -30.5 75.296875 -21.09375 C 75.566406 -20.226562 75.800781 -19.394531 76 -18.59375 C 76.195312 -17.800781 76.363281 -17.070312 76.5 -16.40625 Z M 32.09375 -38.90625 L 50.796875 -38.90625 L 40.09375 -60.796875 Z M 32.09375 -38.90625 "/></g></g></g><g fill="#ebff03" fill-opacity="1"><g transform="translate(263.539335, 111.750005)"><g><path d="M 58.203125 -20.703125 C 59.335938 -20.097656 60.40625 -19.328125 61.40625 -18.390625 C 62.40625 -17.460938 63.132812 -16.332031 63.59375 -15 C 64.0625 -13.664062 64 -12.164062 63.40625 -10.5 C 62.738281 -8.300781 61.367188 -6.664062 59.296875 -5.59375 C 57.234375 -4.53125 55.066406 -4.300781 52.796875 -4.90625 C 51.128906 -5.363281 49.507812 -6.007812 47.9375 -6.84375 C 46.375 -7.675781 44.828125 -8.53125 43.296875 -9.40625 C 41.234375 -10.601562 39.164062 -11.832031 37.09375 -13.09375 C 35.03125 -14.363281 33 -15.597656 31 -16.796875 C 29.9375 -17.460938 28.882812 -18.113281 27.84375 -18.75 C 26.8125 -19.382812 25.765625 -20.035156 24.703125 -20.703125 C 24.367188 -20.898438 24.035156 -21.082031 23.703125 -21.25 C 23.367188 -21.414062 23 -21.597656 22.59375 -21.796875 C 22.0625 -21.992188 21.597656 -22.226562 21.203125 -22.5 L 19.703125 -23.203125 L 19.203125 -17.40625 C 19.003906 -15.9375 18.835938 -14.5 18.703125 -13.09375 C 18.566406 -11.695312 18.429688 -10.332031 18.296875 -9 C 17.960938 -6.53125 17.160156 -4.628906 15.890625 -3.296875 C 14.628906 -1.960938 13.03125 -1.332031 11.09375 -1.40625 C 9.164062 -1.46875 7.582031 -2.195312 6.34375 -3.59375 C 5.113281 -5 4.398438 -6.898438 4.203125 -9.296875 C 2.867188 -27.097656 4.203125 -46.5 8.203125 -67.5 C 8.734375 -70.363281 9.734375 -72.226562 11.203125 -73.09375 C 11.929688 -73.5 12.796875 -73.703125 13.796875 -73.703125 C 14.992188 -73.703125 16.394531 -73.4375 18 -72.90625 C 18.664062 -72.632812 19.378906 -72.582031 20.140625 -72.75 C 20.910156 -72.914062 21.460938 -73.066406 21.796875 -73.203125 C 28.992188 -76.003906 36.796875 -76.40625 45.203125 -74.40625 C 54.128906 -72.269531 59.5625 -66.632812 61.5 -57.5 C 63.300781 -49.164062 60.566406 -42.164062 53.296875 -36.5 C 52.429688 -35.894531 51.53125 -35.289062 50.59375 -34.6875 C 49.664062 -34.09375 48.664062 -33.460938 47.59375 -32.796875 C 47.132812 -32.535156 46.632812 -32.238281 46.09375 -31.90625 C 45.5625 -31.570312 45.03125 -31.238281 44.5 -30.90625 L 43 -30 L 44.5 -29.09375 C 45.226562 -28.632812 45.957031 -28.171875 46.6875 -27.703125 C 47.425781 -27.234375 48.128906 -26.800781 48.796875 -26.40625 C 50.398438 -25.332031 51.96875 -24.328125 53.5 -23.390625 C 55.03125 -22.460938 56.597656 -21.566406 58.203125 -20.703125 Z M 21.796875 -43.703125 C 30.066406 -44.835938 37.234375 -47.503906 43.296875 -51.703125 C 45.367188 -53.171875 46.269531 -54.90625 46 -56.90625 C 45.726562 -58.769531 44.53125 -60.066406 42.40625 -60.796875 C 35.738281 -62.992188 29.835938 -62.363281 24.703125 -58.90625 C 22.628906 -57.570312 21.425781 -55.988281 21.09375 -54.15625 C 20.757812 -52.320312 20.628906 -50.503906 20.703125 -48.703125 C 20.703125 -48.035156 20.703125 -47.382812 20.703125 -46.75 C 20.703125 -46.113281 20.664062 -45.5 20.59375 -44.90625 L 20.40625 -43.5 Z M 21.796875 -43.703125 "/></g></g></g><g fill="#ebff03" fill-opacity="1"><g transform="translate(331.136745, 111.750005)"><g><path d="M 71.703125 -74.40625 C 73.296875 -73.332031 74.3125 -71.910156 74.75 -70.140625 C 75.1875 -68.378906 74.96875 -66.53125 74.09375 -64.59375 L 71.90625 -59.59375 C 68.300781 -51.257812 64.679688 -42.957031 61.046875 -34.6875 C 57.410156 -26.425781 53.796875 -18.164062 50.203125 -9.90625 C 49.335938 -7.96875 48.46875 -6.429688 47.59375 -5.296875 C 45.800781 -2.898438 43.570312 -1.632812 40.90625 -1.5 C 38.238281 -1.4375 35.96875 -2.46875 34.09375 -4.59375 C 32.5625 -6.257812 31.128906 -8.460938 29.796875 -11.203125 C 28.796875 -13.335938 27.796875 -15.46875 26.796875 -17.59375 C 25.796875 -19.726562 24.796875 -21.863281 23.796875 -24 C 22.796875 -26.195312 21.796875 -28.363281 20.796875 -30.5 C 19.796875 -32.632812 18.796875 -34.769531 17.796875 -36.90625 C 16.867188 -38.832031 15.9375 -40.726562 15 -42.59375 C 14.0625 -44.46875 13.128906 -46.335938 12.203125 -48.203125 C 11.335938 -49.796875 10.503906 -51.394531 9.703125 -53 C 8.898438 -54.601562 8.097656 -56.238281 7.296875 -57.90625 C 6.628906 -59.300781 5.992188 -60.679688 5.390625 -62.046875 C 4.796875 -63.410156 4.332031 -64.796875 4 -66.203125 C 3.132812 -69.796875 4.066406 -72.363281 6.796875 -73.90625 C 7.734375 -74.363281 8.734375 -74.59375 9.796875 -74.59375 C 11.796875 -74.59375 13.53125 -73.695312 15 -71.90625 C 17.664062 -68.5 20.296875 -65.113281 22.890625 -61.75 C 25.492188 -58.382812 27.894531 -54.898438 30.09375 -51.296875 C 31.5 -49.160156 32.785156 -46.957031 33.953125 -44.6875 C 35.117188 -42.425781 36.269531 -40.0625 37.40625 -37.59375 C 37.9375 -36.46875 38.484375 -35.335938 39.046875 -34.203125 C 39.617188 -33.066406 40.203125 -31.929688 40.796875 -30.796875 L 41.90625 -28.703125 L 44 -33.90625 C 44.394531 -34.769531 44.757812 -35.597656 45.09375 -36.390625 C 45.425781 -37.191406 45.757812 -37.992188 46.09375 -38.796875 C 46.5625 -39.929688 47.03125 -41.066406 47.5 -42.203125 C 47.96875 -43.335938 48.4375 -44.46875 48.90625 -45.59375 C 50.101562 -48.59375 51.347656 -51.609375 52.640625 -54.640625 C 53.941406 -57.679688 55.257812 -60.703125 56.59375 -63.703125 C 57.925781 -66.703125 59.695312 -69.632812 61.90625 -72.5 C 63.164062 -74.101562 64.710938 -75.070312 66.546875 -75.40625 C 68.378906 -75.738281 70.097656 -75.40625 71.703125 -74.40625 Z M 71.703125 -74.40625 "/></g></g></g><g fill="#ebff03" fill-opacity="1"><g transform="translate(406.43383, 111.750005)"><g><path d="M 23.796875 -59.296875 C 24.265625 -52.234375 24.210938 -45.148438 23.640625 -38.046875 C 23.078125 -30.953125 22.394531 -23.96875 21.59375 -17.09375 L 21 -11.09375 C 20.800781 -9.695312 20.269531 -8.195312 19.40625 -6.59375 C 17.800781 -3.863281 15.664062 -2.5 13 -2.5 C 10.53125 -2.5 8.597656 -3.765625 7.203125 -6.296875 C 5.460938 -9.429688 4.492188 -12.929688 4.296875 -16.796875 C 4.097656 -19.398438 4 -22.035156 4 -24.703125 C 4 -27.367188 4.03125 -30 4.09375 -32.59375 C 4.09375 -33.664062 4.09375 -34.75 4.09375 -35.84375 C 4.09375 -36.945312 4.09375 -38.066406 4.09375 -39.203125 L 4.09375 -40.296875 L 3.703125 -40.296875 C 3.765625 -41.097656 3.8125 -41.914062 3.84375 -42.75 C 3.882812 -43.582031 3.90625 -44.398438 3.90625 -45.203125 C 4.03125 -47.671875 4.160156 -50.15625 4.296875 -52.65625 C 4.429688 -55.15625 4.597656 -57.671875 4.796875 -60.203125 C 5.066406 -63.335938 5.632812 -66.238281 6.5 -68.90625 C 7.164062 -70.695312 8.210938 -72.109375 9.640625 -73.140625 C 11.078125 -74.179688 12.695312 -74.664062 14.5 -74.59375 C 18.4375 -74.394531 20.96875 -72.460938 22.09375 -68.796875 C 22.96875 -66.066406 23.535156 -62.898438 23.796875 -59.296875 Z M 23.796875 -59.296875 "/></g></g></g><g fill="#ebff03" fill-opacity="1"><g transform="translate(434.332739, 111.750005)"><g><path d="M 74.90625 -71.59375 C 75.300781 -69.59375 75.5 -67.460938 75.5 -65.203125 L 75.296875 -57 C 75.160156 -50.664062 75.023438 -44.25 74.890625 -37.75 C 74.765625 -31.25 74.566406 -24.765625 74.296875 -18.296875 C 74.097656 -11.367188 72.066406 -6.835938 68.203125 -4.703125 C 64.460938 -2.628906 59.660156 -3.257812 53.796875 -6.59375 C 50.796875 -8.332031 48.046875 -10.414062 45.546875 -12.84375 C 43.046875 -15.28125 41 -17.46875 39.40625 -19.40625 C 37.40625 -21.664062 35.503906 -24.046875 33.703125 -26.546875 C 31.898438 -29.046875 30.132812 -31.53125 28.40625 -34 C 27.664062 -35 26.945312 -36 26.25 -37 C 25.550781 -38 24.832031 -39 24.09375 -40 L 23.703125 -40.703125 C 23.296875 -41.234375 22.859375 -41.78125 22.390625 -42.34375 C 21.929688 -42.914062 21.332031 -43.46875 20.59375 -44 L 18.90625 -45.296875 L 18.90625 -42.09375 C 18.90625 -41.695312 18.90625 -41.316406 18.90625 -40.953125 C 18.90625 -40.585938 18.90625 -40.203125 18.90625 -39.796875 L 18.59375 -33.296875 C 18.46875 -29.160156 18.335938 -24.976562 18.203125 -20.75 C 18.066406 -16.519531 17.898438 -12.335938 17.703125 -8.203125 C 17.628906 -6.671875 17.195312 -5.132812 16.40625 -3.59375 C 15.40625 -1.53125 14.003906 -0.46875 12.203125 -0.40625 C 10.460938 -0.269531 9.03125 -1.164062 7.90625 -3.09375 C 6.832031 -4.695312 6.226562 -6.265625 6.09375 -7.796875 C 4.832031 -18.265625 4.066406 -27.898438 3.796875 -36.703125 C 3.535156 -45.503906 3.769531 -53.9375 4.5 -62 C 4.5625 -63.394531 4.925781 -64.863281 5.59375 -66.40625 C 6.664062 -69.132812 8.4375 -70.929688 10.90625 -71.796875 C 11.832031 -72.066406 12.726562 -72.203125 13.59375 -72.203125 C 15.195312 -72.203125 16.734375 -71.769531 18.203125 -70.90625 C 20.335938 -69.695312 22.132812 -68.160156 23.59375 -66.296875 C 25.257812 -64.160156 26.925781 -61.992188 28.59375 -59.796875 C 30.257812 -57.597656 31.894531 -55.429688 33.5 -53.296875 C 34.4375 -52.097656 35.351562 -50.898438 36.25 -49.703125 C 37.144531 -48.503906 38.0625 -47.300781 39 -46.09375 C 40.601562 -43.96875 42.203125 -41.867188 43.796875 -39.796875 C 45.398438 -37.734375 47 -35.632812 48.59375 -33.5 L 53.5 -27.203125 L 56.09375 -28.203125 L 56.203125 -30 C 56.265625 -30.394531 56.296875 -30.789062 56.296875 -31.1875 C 56.296875 -31.59375 56.332031 -32 56.40625 -32.40625 C 56.40625 -33.9375 56.4375 -35.46875 56.5 -37 C 56.5625 -38.53125 56.59375 -40.0625 56.59375 -41.59375 C 56.726562 -45.394531 56.863281 -49.226562 57 -53.09375 C 57.132812 -56.96875 57.269531 -60.835938 57.40625 -64.703125 C 57.601562 -67.628906 58.234375 -70.492188 59.296875 -73.296875 C 60.035156 -75.097656 61.1875 -76.460938 62.75 -77.390625 C 64.3125 -78.328125 66.03125 -78.695312 67.90625 -78.5 C 69.632812 -78.300781 71.148438 -77.566406 72.453125 -76.296875 C 73.753906 -75.035156 74.570312 -73.46875 74.90625 -71.59375 Z M 74.90625 -71.59375 "/></g></g></g><g fill="#ebff03" fill-opacity="1"><g transform="translate(84.002417, 177.000003)"><g><path d="M 48 -14.703125 C 48.863281 -12.503906 48.5 -10.238281 46.90625 -7.90625 C 46.769531 -7.695312 46.617188 -7.492188 46.453125 -7.296875 C 46.285156 -7.097656 46.132812 -6.929688 46 -6.796875 C 35.53125 0.796875 25.53125 2.960938 16 -0.296875 C 13.269531 -1.234375 11.070312 -2.515625 9.40625 -4.140625 C 7.738281 -5.773438 6.488281 -7.5625 5.65625 -9.5 C 4.820312 -11.4375 4.285156 -13.335938 4.046875 -15.203125 C 3.816406 -17.066406 3.703125 -18.734375 3.703125 -20.203125 C 3.898438 -26.398438 4.25 -32.648438 4.75 -38.953125 C 5.25 -45.253906 5.800781 -51.4375 6.40625 -57.5 L 6.703125 -60.90625 C 6.898438 -63.164062 7.25 -65.425781 7.75 -67.6875 C 8.25 -69.957031 8.863281 -72.394531 9.59375 -75 C 10.59375 -78.863281 12.628906 -80.796875 15.703125 -80.796875 C 15.898438 -80.796875 16.066406 -80.796875 16.203125 -80.796875 C 17.867188 -80.660156 19.21875 -79.992188 20.25 -78.796875 C 21.28125 -77.597656 21.863281 -76.03125 22 -74.09375 C 22.269531 -70.832031 22.453125 -67.566406 22.546875 -64.296875 C 22.648438 -61.035156 22.769531 -57.9375 22.90625 -55 C 22.90625 -53.800781 22.921875 -52.664062 22.953125 -51.59375 C 22.984375 -50.53125 23.03125 -49.5 23.09375 -48.5 C 23.09375 -47.03125 23.09375 -45.59375 23.09375 -44.1875 C 23.09375 -42.789062 23.09375 -41.425781 23.09375 -40.09375 C 23.09375 -37.09375 23.09375 -34.175781 23.09375 -31.34375 C 23.09375 -28.507812 23.09375 -25.726562 23.09375 -23 C 23.164062 -21.863281 23.265625 -20.925781 23.390625 -20.1875 C 23.523438 -19.457031 23.863281 -18.894531 24.40625 -18.5 C 24.9375 -17.96875 25.617188 -17.679688 26.453125 -17.640625 C 27.285156 -17.609375 28.203125 -17.660156 29.203125 -17.796875 C 29.929688 -17.867188 30.644531 -17.953125 31.34375 -18.046875 C 32.050781 -18.148438 32.769531 -18.234375 33.5 -18.296875 C 34.226562 -18.429688 34.976562 -18.546875 35.75 -18.640625 C 36.519531 -18.742188 37.269531 -18.832031 38 -18.90625 C 39.9375 -19.03125 41.570312 -18.960938 42.90625 -18.703125 C 45.5 -18.097656 47.195312 -16.765625 48 -14.703125 Z M 48 -14.703125 "/></g></g></g><g fill="#ebff03" fill-opacity="1"><g transform="translate(136.100406, 177.000003)"><g><path d="M 76.5 -16.40625 C 76.5625 -15.9375 76.660156 -15.5 76.796875 -15.09375 C 76.734375 -12.632812 76.179688 -10.570312 75.140625 -8.90625 C 74.109375 -7.238281 72.660156 -6.132812 70.796875 -5.59375 C 68.929688 -5 67.128906 -5.066406 65.390625 -5.796875 C 63.660156 -6.535156 62.265625 -7.769531 61.203125 -9.5 C 60.066406 -11.4375 59.097656 -13.835938 58.296875 -16.703125 C 58.035156 -17.765625 57.570312 -18.726562 56.90625 -19.59375 C 56.238281 -20.46875 55.035156 -20.9375 53.296875 -21 C 51.367188 -21.0625 49.4375 -21.125 47.5 -21.1875 C 45.5625 -21.257812 43.628906 -21.332031 41.703125 -21.40625 C 39.171875 -21.53125 36.601562 -21.644531 34 -21.75 C 31.394531 -21.851562 28.796875 -21.9375 26.203125 -22 C 25.535156 -22 24.800781 -21.710938 24 -21.140625 C 23.195312 -20.578125 22.597656 -20 22.203125 -19.40625 C 21.671875 -18.46875 21.15625 -17.515625 20.65625 -16.546875 C 20.15625 -15.578125 19.671875 -14.628906 19.203125 -13.703125 C 18.734375 -12.765625 18.25 -11.796875 17.75 -10.796875 C 17.25 -9.796875 16.695312 -8.832031 16.09375 -7.90625 C 13.757812 -3.832031 10.925781 -2.53125 7.59375 -4 C 6.257812 -4.53125 5.175781 -5.59375 4.34375 -7.1875 C 3.507812 -8.789062 3.425781 -10.660156 4.09375 -12.796875 C 6.425781 -20.066406 9.425781 -28.300781 13.09375 -37.5 C 15.425781 -43.363281 18.363281 -49.960938 21.90625 -57.296875 C 22.90625 -59.367188 24.019531 -61.550781 25.25 -63.84375 C 26.476562 -66.144531 27.828125 -68.394531 29.296875 -70.59375 C 30.828125 -72.800781 33.0625 -74.738281 36 -76.40625 C 38.195312 -77.738281 40.296875 -78.40625 42.296875 -78.40625 C 45.828125 -78.40625 48.757812 -76.4375 51.09375 -72.5 C 55.695312 -64.632812 60.195312 -56.453125 64.59375 -47.953125 C 69 -39.453125 72.566406 -30.5 75.296875 -21.09375 C 75.566406 -20.226562 75.800781 -19.394531 76 -18.59375 C 76.195312 -17.800781 76.363281 -17.070312 76.5 -16.40625 Z M 32.09375 -38.90625 L 50.796875 -38.90625 L 40.09375 -60.796875 Z M 32.09375 -38.90625 "/></g></g></g><g fill="#ebff03" fill-opacity="1"><g transform="translate(216.597298, 177.000003)"><g><path d="M 65.09375 -70.203125 C 66.164062 -67.535156 66.601562 -65.367188 66.40625 -63.703125 C 64.664062 -50.171875 62.929688 -38.101562 61.203125 -27.5 C 60.867188 -25.769531 60.347656 -24.035156 59.640625 -22.296875 C 58.941406 -20.566406 58.195312 -18.898438 57.40625 -17.296875 C 53.9375 -10.160156 48.664062 -5.5625 41.59375 -3.5 C 34.46875 -1.4375 27.46875 -2.535156 20.59375 -6.796875 C 10.195312 -13.265625 4.695312 -22.96875 4.09375 -35.90625 C 4.03125 -36.832031 4.015625 -37.757812 4.046875 -38.6875 C 4.078125 -39.625 4.09375 -40.5625 4.09375 -41.5 C 4.09375 -41.96875 4.09375 -42.414062 4.09375 -42.84375 C 4.09375 -43.28125 4.09375 -43.695312 4.09375 -44.09375 L 4.09375 -45.203125 L 3.703125 -45.203125 L 4 -48.703125 C 4.195312 -51.171875 4.394531 -53.632812 4.59375 -56.09375 C 4.800781 -58.5625 5.035156 -61.03125 5.296875 -63.5 C 5.367188 -64.4375 5.601562 -65.535156 6 -66.796875 C 7 -69.796875 8.898438 -71.394531 11.703125 -71.59375 C 13.035156 -71.664062 14.25 -71.285156 15.34375 -70.453125 C 16.445312 -69.617188 17.195312 -68.46875 17.59375 -67 C 18.332031 -64.664062 18.867188 -61.800781 19.203125 -58.40625 C 19.398438 -56.132812 19.597656 -53.863281 19.796875 -51.59375 C 19.992188 -49.332031 20.195312 -47.066406 20.40625 -44.796875 C 20.53125 -43.398438 20.660156 -41.96875 20.796875 -40.5 C 20.929688 -39.03125 21.066406 -37.5625 21.203125 -36.09375 C 21.796875 -29.5625 24.660156 -24.597656 29.796875 -21.203125 C 33.128906 -19.003906 36.164062 -18.40625 38.90625 -19.40625 C 41.363281 -20.332031 43.0625 -22.429688 44 -25.703125 C 44.9375 -29.035156 45.703125 -32.398438 46.296875 -35.796875 C 46.898438 -39.203125 47.4375 -42.570312 47.90625 -45.90625 L 48.203125 -47.5 C 48.398438 -48.96875 48.566406 -50.453125 48.703125 -51.953125 C 48.835938 -53.453125 48.96875 -54.9375 49.09375 -56.40625 C 49.164062 -57.601562 49.265625 -58.847656 49.390625 -60.140625 C 49.523438 -61.441406 49.660156 -62.695312 49.796875 -63.90625 C 50.128906 -66.4375 50.832031 -68.734375 51.90625 -70.796875 C 53.300781 -73.460938 55.597656 -74.695312 58.796875 -74.5 C 61.867188 -74.363281 63.96875 -72.929688 65.09375 -70.203125 Z M 65.09375 -70.203125 "/></g></g></g><g fill="#ebff03" fill-opacity="1"><g transform="translate(286.794599, 177.000003)"><g><path d="M 58.203125 -20.703125 C 59.335938 -20.097656 60.40625 -19.328125 61.40625 -18.390625 C 62.40625 -17.460938 63.132812 -16.332031 63.59375 -15 C 64.0625 -13.664062 64 -12.164062 63.40625 -10.5 C 62.738281 -8.300781 61.367188 -6.664062 59.296875 -5.59375 C 57.234375 -4.53125 55.066406 -4.300781 52.796875 -4.90625 C 51.128906 -5.363281 49.507812 -6.007812 47.9375 -6.84375 C 46.375 -7.675781 44.828125 -8.53125 43.296875 -9.40625 C 41.234375 -10.601562 39.164062 -11.832031 37.09375 -13.09375 C 35.03125 -14.363281 33 -15.597656 31 -16.796875 C 29.9375 -17.460938 28.882812 -18.113281 27.84375 -18.75 C 26.8125 -19.382812 25.765625 -20.035156 24.703125 -20.703125 C 24.367188 -20.898438 24.035156 -21.082031 23.703125 -21.25 C 23.367188 -21.414062 23 -21.597656 22.59375 -21.796875 C 22.0625 -21.992188 21.597656 -22.226562 21.203125 -22.5 L 19.703125 -23.203125 L 19.203125 -17.40625 C 19.003906 -15.9375 18.835938 -14.5 18.703125 -13.09375 C 18.566406 -11.695312 18.429688 -10.332031 18.296875 -9 C 17.960938 -6.53125 17.160156 -4.628906 15.890625 -3.296875 C 14.628906 -1.960938 13.03125 -1.332031 11.09375 -1.40625 C 9.164062 -1.46875 7.582031 -2.195312 6.34375 -3.59375 C 5.113281 -5 4.398438 -6.898438 4.203125 -9.296875 C 2.867188 -27.097656 4.203125 -46.5 8.203125 -67.5 C 8.734375 -70.363281 9.734375 -72.226562 11.203125 -73.09375 C 11.929688 -73.5 12.796875 -73.703125 13.796875 -73.703125 C 14.992188 -73.703125 16.394531 -73.4375 18 -72.90625 C 18.664062 -72.632812 19.378906 -72.582031 20.140625 -72.75 C 20.910156 -72.914062 21.460938 -73.066406 21.796875 -73.203125 C 28.992188 -76.003906 36.796875 -76.40625 45.203125 -74.40625 C 54.128906 -72.269531 59.5625 -66.632812 61.5 -57.5 C 63.300781 -49.164062 60.566406 -42.164062 53.296875 -36.5 C 52.429688 -35.894531 51.53125 -35.289062 50.59375 -34.6875 C 49.664062 -34.09375 48.664062 -33.460938 47.59375 -32.796875 C 47.132812 -32.535156 46.632812 -32.238281 46.09375 -31.90625 C 45.5625 -31.570312 45.03125 -31.238281 44.5 -30.90625 L 43 -30 L 44.5 -29.09375 C 45.226562 -28.632812 45.957031 -28.171875 46.6875 -27.703125 C 47.425781 -27.234375 48.128906 -26.800781 48.796875 -26.40625 C 50.398438 -25.332031 51.96875 -24.328125 53.5 -23.390625 C 55.03125 -22.460938 56.597656 -21.566406 58.203125 -20.703125 Z M 21.796875 -43.703125 C 30.066406 -44.835938 37.234375 -47.503906 43.296875 -51.703125 C 45.367188 -53.171875 46.269531 -54.90625 46 -56.90625 C 45.726562 -58.769531 44.53125 -60.066406 42.40625 -60.796875 C 35.738281 -62.992188 29.835938 -62.363281 24.703125 -58.90625 C 22.628906 -57.570312 21.425781 -55.988281 21.09375 -54.15625 C 20.757812 -52.320312 20.628906 -50.503906 20.703125 -48.703125 C 20.703125 -48.035156 20.703125 -47.382812 20.703125 -46.75 C 20.703125 -46.113281 20.664062 -45.5 20.59375 -44.90625 L 20.40625 -43.5 Z M 21.796875 -43.703125 "/></g></g></g><g fill="#ebff03" fill-opacity="1"><g transform="translate(354.391985, 177.000003)"><g><path d="M 76.5 -16.40625 C 76.5625 -15.9375 76.660156 -15.5 76.796875 -15.09375 C 76.734375 -12.632812 76.179688 -10.570312 75.140625 -8.90625 C 74.109375 -7.238281 72.660156 -6.132812 70.796875 -5.59375 C 68.929688 -5 67.128906 -5.066406 65.390625 -5.796875 C 63.660156 -6.535156 62.265625 -7.769531 61.203125 -9.5 C 60.066406 -11.4375 59.097656 -13.835938 58.296875 -16.703125 C 58.035156 -17.765625 57.570312 -18.726562 56.90625 -19.59375 C 56.238281 -20.46875 55.035156 -20.9375 53.296875 -21 C 51.367188 -21.0625 49.4375 -21.125 47.5 -21.1875 C 45.5625 -21.257812 43.628906 -21.332031 41.703125 -21.40625 C 39.171875 -21.53125 36.601562 -21.644531 34 -21.75 C 31.394531 -21.851562 28.796875 -21.9375 26.203125 -22 C 25.535156 -22 24.800781 -21.710938 24 -21.140625 C 23.195312 -20.578125 22.597656 -20 22.203125 -19.40625 C 21.671875 -18.46875 21.15625 -17.515625 20.65625 -16.546875 C 20.15625 -15.578125 19.671875 -14.628906 19.203125 -13.703125 C 18.734375 -12.765625 18.25 -11.796875 17.75 -10.796875 C 17.25 -9.796875 16.695312 -8.832031 16.09375 -7.90625 C 13.757812 -3.832031 10.925781 -2.53125 7.59375 -4 C 6.257812 -4.53125 5.175781 -5.59375 4.34375 -7.1875 C 3.507812 -8.789062 3.425781 -10.660156 4.09375 -12.796875 C 6.425781 -20.066406 9.425781 -28.300781 13.09375 -37.5 C 15.425781 -43.363281 18.363281 -49.960938 21.90625 -57.296875 C 22.90625 -59.367188 24.019531 -61.550781 25.25 -63.84375 C 26.476562 -66.144531 27.828125 -68.394531 29.296875 -70.59375 C 30.828125 -72.800781 33.0625 -74.738281 36 -76.40625 C 38.195312 -77.738281 40.296875 -78.40625 42.296875 -78.40625 C 45.828125 -78.40625 48.757812 -76.4375 51.09375 -72.5 C 55.695312 -64.632812 60.195312 -56.453125 64.59375 -47.953125 C 69 -39.453125 72.566406 -30.5 75.296875 -21.09375 C 75.566406 -20.226562 75.800781 -19.394531 76 -18.59375 C 76.195312 -17.800781 76.363281 -17.070312 76.5 -16.40625 Z M 32.09375 -38.90625 L 50.796875 -38.90625 L 40.09375 -60.796875 Z M 32.09375 -38.90625 "/></g></g></g><g fill="#ebff03" fill-opacity="1"><g transform="translate(434.888876, 177.000003)"><g><path d="M 76.09375 -15.59375 C 77.96875 -12.726562 77.96875 -10.03125 76.09375 -7.5 C 73.894531 -4.632812 71.664062 -2.703125 69.40625 -1.703125 C 62.269531 1.628906 54.4375 3.5 45.90625 3.90625 C 33.238281 2.96875 22.96875 -1.164062 15.09375 -8.5 C 4.5625 -18.300781 1.332031 -31.035156 5.40625 -46.703125 C 8.40625 -58.503906 15.703125 -68.132812 27.296875 -75.59375 C 29.960938 -77.257812 32.757812 -78.507812 35.6875 -79.34375 C 38.625 -80.175781 41.5625 -80.59375 44.5 -80.59375 C 47.96875 -80.59375 51.316406 -80.039062 54.546875 -78.9375 C 57.785156 -77.84375 60.738281 -76.195312 63.40625 -74 C 65.40625 -72.332031 66.867188 -70.53125 67.796875 -68.59375 C 68.597656 -66.800781 68.53125 -65.203125 67.59375 -63.796875 C 66.53125 -62.398438 64.929688 -61.832031 62.796875 -62.09375 C 61.265625 -62.226562 59.566406 -62.695312 57.703125 -63.5 C 50.765625 -66.300781 44.613281 -66.632812 39.25 -64.5 C 33.882812 -62.363281 28.898438 -57.628906 24.296875 -50.296875 C 23.296875 -48.703125 22.546875 -47.003906 22.046875 -45.203125 C 21.546875 -43.398438 21.164062 -41.765625 20.90625 -40.296875 C 19.96875 -35.628906 20.597656 -31.226562 22.796875 -27.09375 C 24.992188 -22.96875 28.394531 -19.800781 33 -17.59375 C 36.601562 -15.800781 40.15625 -14.753906 43.65625 -14.453125 C 47.15625 -14.148438 50.519531 -14.296875 53.75 -14.890625 C 56.976562 -15.492188 60.0625 -16.296875 63 -17.296875 C 63.863281 -17.566406 64.8125 -17.847656 65.84375 -18.140625 C 66.882812 -18.441406 67.867188 -18.660156 68.796875 -18.796875 C 71.992188 -19.128906 74.425781 -18.0625 76.09375 -15.59375 Z M 76.09375 -15.59375 "/></g></g></g></svg>